<svg width="28" height="28" viewBox="0 0 28 28" fill="none" xmlns="http://www.w3.org/2000/svg">
<path d="M13.9993 0.719727C6.66602 0.719727 0.666016 6.70639 0.666016 14.0797C0.666016 20.7464 5.54601 26.2797 11.9193 27.2797V17.9464H8.53268V14.0797H11.9193V11.1331C11.9193 7.78639 13.906 5.94639 16.9594 5.94639C18.4127 5.94639 19.9327 6.19973 19.9327 6.19973V9.49306H18.2527C16.5993 9.49306 16.0793 10.5197 16.0793 11.5731V14.0797H19.786L19.186 17.9464H16.0793V27.2797C19.2213 26.7835 22.0823 25.1804 24.1459 22.7598C26.2095 20.3392 27.3398 17.2606 27.3327 14.0797C27.3327 6.70639 21.3327 0.719727 13.9993 0.719727Z" fill="white"/>
</svg>
