<svg width="28" height="28" viewBox="0 0 28 28" fill="none" xmlns="http://www.w3.org/2000/svg">
<path d="M8.39935 0.666992H19.5993C23.866 0.666992 27.3327 4.13366 27.3327 8.40033V19.6003C27.3327 21.6513 26.5179 23.6183 25.0676 25.0686C23.6174 26.5189 21.6504 27.3337 19.5993 27.3337H8.39935C4.13268 27.3337 0.666016 23.867 0.666016 19.6003V8.40033C0.666016 6.34932 1.48078 4.38231 2.93106 2.93203C4.38134 1.48175 6.34834 0.666992 8.39935 0.666992ZM8.13268 3.33366C6.85964 3.33366 5.63874 3.83937 4.73857 4.73955C3.8384 5.63972 3.33268 6.86062 3.33268 8.13366V19.867C3.33268 22.5203 5.47935 24.667 8.13268 24.667H19.866C21.1391 24.667 22.36 24.1613 23.2601 23.2611C24.1603 22.3609 24.666 21.14 24.666 19.867V8.13366C24.666 5.48033 22.5193 3.33366 19.866 3.33366H8.13268ZM20.9993 5.33366C21.4414 5.33366 21.8653 5.50925 22.1779 5.82181C22.4904 6.13437 22.666 6.5583 22.666 7.00033C22.666 7.44235 22.4904 7.86628 22.1779 8.17884C21.8653 8.4914 21.4414 8.66699 20.9993 8.66699C20.5573 8.66699 20.1334 8.4914 19.8208 8.17884C19.5083 7.86628 19.3327 7.44235 19.3327 7.00033C19.3327 6.5583 19.5083 6.13437 19.8208 5.82181C20.1334 5.50925 20.5573 5.33366 20.9993 5.33366ZM13.9993 7.33366C15.7675 7.33366 17.4632 8.03604 18.7134 9.28628C19.9636 10.5365 20.666 12.2322 20.666 14.0003C20.666 15.7684 19.9636 17.4641 18.7134 18.7144C17.4632 19.9646 15.7675 20.667 13.9993 20.667C12.2312 20.667 10.5355 19.9646 9.2853 18.7144C8.03506 17.4641 7.33268 15.7684 7.33268 14.0003C7.33268 12.2322 8.03506 10.5365 9.2853 9.28628C10.5355 8.03604 12.2312 7.33366 13.9993 7.33366ZM13.9993 10.0003C12.9385 10.0003 11.9211 10.4218 11.1709 11.1719C10.4208 11.922 9.99935 12.9395 9.99935 14.0003C9.99935 15.0612 10.4208 16.0786 11.1709 16.8288C11.9211 17.5789 12.9385 18.0003 13.9993 18.0003C15.0602 18.0003 16.0776 17.5789 16.8278 16.8288C17.5779 16.0786 17.9993 15.0612 17.9993 14.0003C17.9993 12.9395 17.5779 11.922 16.8278 11.1719C16.0776 10.4218 15.0602 10.0003 13.9993 10.0003Z" fill="white"/>
</svg>
