<svg width="28" height="20" viewBox="0 0 28 20" fill="none" xmlns="http://www.w3.org/2000/svg">
<path d="M11.3327 14.0003L18.2527 10.0003L11.3327 6.00033V14.0003ZM26.746 3.56033C26.9193 4.18699 27.0393 5.02699 27.1193 6.09366C27.2127 7.16032 27.2527 8.08032 27.2527 8.88032L27.3327 10.0003C27.3327 12.9203 27.1193 15.067 26.746 16.4403C26.4127 17.6403 25.6393 18.4137 24.4393 18.747C23.8127 18.9203 22.666 19.0403 20.906 19.1203C19.1727 19.2137 17.586 19.2537 16.1193 19.2537L13.9993 19.3337C8.41268 19.3337 4.93268 19.1203 3.55935 18.747C2.35935 18.4137 1.58602 17.6403 1.25268 16.4403C1.07935 15.8137 0.959349 14.9737 0.879349 13.907C0.786016 12.8403 0.746016 11.9203 0.746016 11.1203L0.666016 10.0003C0.666016 7.08033 0.879349 4.93366 1.25268 3.56033C1.58602 2.36033 2.35935 1.58699 3.55935 1.25366C4.18602 1.08033 5.33268 0.960325 7.09268 0.880325C8.82602 0.786992 10.4127 0.746992 11.8793 0.746992L13.9993 0.666992C19.586 0.666992 23.066 0.880326 24.4393 1.25366C25.6393 1.58699 26.4127 2.36033 26.746 3.56033Z" fill="white"/>
</svg>
